<?xml version="1.0" encoding="utf-8"?>
<!-- Generator: Adobe Illustrator 23.0.6, SVG Export Plug-In . SVG Version: 6.00 Build 0)  -->
<svg version="1.1" id="Layer_1" xmlns="http://www.w3.org/2000/svg" xmlns:xlink="http://www.w3.org/1999/xlink" x="0px" y="0px"
	 viewBox="0 0 169 169" style="enable-background:new 0 0 169 169;" xml:space="preserve">
<style type="text/css">
	.st0{fill:#FFFFFF;}
	.st1{fill:#422E22;}
</style>
<circle class="st0" cx="84.5" cy="84.5" r="84.5"/>
<g id="left-arrow">
	<path class="st1" d="M131.8,77.5c1.9,1.6,1.9,4.2,0,5.8s-5,1.6-6.9,0L90,53.6v79.9c-0.2,2.3-2.6,4.1-5.3,4
		c-2.4,0.1-4.4-1.6-4.4-3.6c0-0.1,0-0.2,0-0.4V53.6L45.4,83.4c-1.9,1.6-5,1.6-6.9,0c-1.9-1.6-1.9-4.2-0.1-5.8c0,0,0,0,0.1-0.1
		l43.2-36.8c1.9-1.6,4.9-1.6,6.8,0L131.8,77.5z"/>
</g>
</svg>
