<?xml version="1.0" encoding="utf-8"?>
<!-- Generator: Adobe Illustrator 23.0.6, SVG Export Plug-In . SVG Version: 6.00 Build 0)  -->
<svg version="1.1" id="Layer_1" xmlns="http://www.w3.org/2000/svg" xmlns:xlink="http://www.w3.org/1999/xlink" x="0px" y="0px"
	 viewBox="0 0 89.1 53.1" style="enable-background:new 0 0 89.1 53.1;" xml:space="preserve">
<style type="text/css">
	.st0{fill:#422F22;}
</style>
<g>
	<path class="st0" d="M84.1,10H24c-2.8,0-5-2.2-5-5s2.2-5,5-5h60.1c2.8,0,5,2.2,5,5S86.8,10,84.1,10z"/>
</g>
<g>
	<path class="st0" d="M84.1,53.1H43.2c-2.8,0-5-2.2-5-5s2.2-5,5-5h40.9c2.8,0,5,2.2,5,5S86.8,53.1,84.1,53.1z"/>
</g>
<g>
	<path class="st0" d="M84.1,31.4H5c-2.8,0-5-2.2-5-5s2.2-5,5-5h79.1c2.8,0,5,2.2,5,5S86.8,31.4,84.1,31.4z"/>
</g>
</svg>
