<?xml version="1.0" encoding="utf-8"?>
<!-- Generator: Adobe Illustrator 23.0.6, SVG Export Plug-In . SVG Version: 6.00 Build 0)  -->
<svg version="1.1" id="Layer_1" xmlns="http://www.w3.org/2000/svg" xmlns:xlink="http://www.w3.org/1999/xlink" x="0px" y="0px"
	 viewBox="0 0 55.4 25.5" style="enable-background:new 0 0 55.4 25.5;" xml:space="preserve">
<style type="text/css">
	.st0{fill:#422F22;}
</style>
<g>
	<path class="st0" d="M5.9,8.9c-0.2-0.5-0.6-1-1-1.6L2.6,4.4C2.5,4.3,2.4,4.2,2.3,4.1C2.3,3.9,2.2,3.8,2.1,3.7C2.1,3.6,2,3.4,2,3.3
		c0-0.2,0-0.3,0-0.5c0-0.4,0.1-0.6,0.3-0.8s0.5-0.3,0.9-0.3c0.5,0,0.8,0.2,1,0.6c0.2,0.4,0.3,0.9,0.3,1.6v0.6H6
		C6,4.1,6.1,3.9,6.1,3.6c0-0.2,0.1-0.5,0.1-0.8c0-0.3,0-0.7-0.1-1C5.9,1.5,5.8,1.2,5.5,0.9C5.3,0.6,5,0.4,4.6,0.2
		C4.2,0.1,3.7,0,3.1,0C2.6,0,2.2,0.1,1.8,0.2s-0.7,0.4-1,0.6c-0.3,0.3-0.5,0.6-0.6,1C0.1,2.2,0.1,2.6,0.1,3c0,0.6,0.1,1.1,0.3,1.6
		c0.2,0.5,0.5,1,0.9,1.4l2.1,2.5C3.5,8.8,3.7,9,3.8,9.2C3.9,9.4,4,9.5,4.1,9.7s0.1,0.3,0.1,0.5c0,0.2,0,0.4,0,0.6
		c0,0.4-0.1,0.7-0.3,0.9s-0.5,0.3-0.9,0.3c-0.2,0-0.5,0-0.6-0.1c-0.2-0.1-0.3-0.2-0.4-0.4c-0.1-0.2-0.2-0.4-0.2-0.7
		c0-0.3-0.1-0.6-0.1-1V9.2H0.2C0.1,9.5,0.1,9.7,0.1,10C0,10.2,0,10.5,0,10.8c0,0.4,0,0.7,0.1,1c0.1,0.3,0.3,0.6,0.5,0.9
		c0.2,0.3,0.6,0.5,1,0.6s0.9,0.2,1.5,0.2c0.5,0,0.9-0.1,1.3-0.2s0.7-0.3,1-0.6c0.3-0.3,0.5-0.6,0.6-1c0.1-0.4,0.2-0.8,0.2-1.3
		C6.3,9.9,6.2,9.4,5.9,8.9z"/>
	<path class="st0" d="M8.7,0.1L6.3,13.5h2.1l0.4-2.4h2.4l0.4,2.4h2L11.1,0.1H8.7z M8.9,9.5l0.9-6.6h0.1l0.9,6.6H8.9z"/>
	<polygon class="st0" points="15.8,10.7 15.7,10.7 14.2,0.1 12.1,0.1 14.6,13.5 16.9,13.5 19.3,0.1 17.2,0.1 	"/>
	<polygon class="st0" points="24.9,11.9 21.9,11.9 21.9,7.3 24.1,7.3 24.1,5.7 21.9,5.7 21.9,1.7 24.8,1.7 24.8,0.1 19.9,0.1 
		19.9,11.9 19.8,11.9 19.8,13.5 22,13.5 22,25.2 24,25.2 24,13.5 26.2,13.5 26.2,11.9 24.9,11.9 	"/>
	<polygon class="st0" points="26.7,25.3 28.7,25.3 28.7,12.5 26.7,13.9 	"/>
	<path class="st0" d="M32.9,19.8h1v1.7c0,0.3,0,0.6-0.1,0.9c0,0.3-0.1,0.5-0.2,0.7c-0.1,0.2-0.2,0.4-0.4,0.5
		c-0.2,0.1-0.4,0.2-0.6,0.2c-0.2,0-0.4,0-0.6-0.1c-0.2-0.1-0.3-0.2-0.4-0.4c-0.1-0.2-0.2-0.4-0.2-0.7c0-0.3-0.1-0.6-0.1-1v-6
		c0-0.4,0-0.8,0.1-1.1c0-0.3,0.1-0.5,0.2-0.7c0.1-0.2,0.2-0.3,0.4-0.4c0.2-0.1,0.3-0.1,0.6-0.1c0.8,0,1.2,0.7,1.2,2.2v0.6h1.6
		c0.1-0.3,0.1-0.6,0.1-0.8c0-0.2,0.1-0.5,0.1-0.8c0-0.4-0.1-0.8-0.2-1.1s-0.3-0.6-0.5-0.9c-0.2-0.3-0.5-0.5-0.9-0.6
		c-0.4-0.1-0.8-0.2-1.4-0.2c-0.2,0-0.4,0-0.7,0s-0.5,0.1-0.8,0.2c-0.3,0.1-0.5,0.2-0.7,0.4c-0.2,0.2-0.4,0.5-0.6,0.8
		c-0.2,0.3-0.3,0.7-0.4,1.2s-0.2,1.1-0.2,1.7v4.7c0,0.7,0.1,1.2,0.2,1.7c0.1,0.5,0.2,0.9,0.4,1.2c0.2,0.3,0.4,0.6,0.6,0.8
		c0.2,0.2,0.4,0.4,0.7,0.5c0.2,0.1,0.4,0.2,0.6,0.2c0.2,0,0.4,0.1,0.5,0.1c0.5,0,0.8-0.1,1.2-0.3c0.3-0.2,0.6-0.6,0.9-1.1l0.2,1.3
		h1.3v-6.8h-3V19.8z"/>
	<polygon class="st0" points="38.6,19.1 40.9,19.1 40.9,17.5 38.6,17.5 38.6,13.5 41.5,13.5 41.5,11.9 36.6,11.9 36.6,25.3 
		41.6,25.3 41.6,23.7 38.6,23.7 	"/>
	<path class="st0" d="M48.1,18.5c0.3-0.6,0.4-1.5,0.4-2.5v-0.3c0-0.6-0.1-1.1-0.2-1.5c-0.1-0.4-0.3-0.8-0.5-1.1
		c-0.2-0.3-0.5-0.5-0.7-0.7c-0.3-0.2-0.6-0.3-0.9-0.4C45.9,12,45.6,12,45.3,12c-0.3,0-0.6,0-0.8,0h-2.2v13.3h2v-5h0.8l1.8,5H49
		l-2.1-5.3C47.4,19.6,47.8,19.2,48.1,18.5z M46.5,16.4c0,0.4,0,0.8-0.1,1.1c-0.1,0.3-0.2,0.5-0.3,0.7c-0.2,0.2-0.3,0.3-0.6,0.4
		c-0.2,0.1-0.5,0.1-0.9,0.1h-0.3v-5.4h0.3c0.4,0,0.7,0,0.9,0.1c0.2,0.1,0.4,0.2,0.6,0.4c0.1,0.2,0.3,0.4,0.3,0.6s0.1,0.5,0.1,0.9
		V16.4z"/>
	<path class="st0" d="M55.1,20.8c-0.2-0.5-0.6-1-1-1.6l-2.4-2.8c-0.1-0.1-0.2-0.3-0.3-0.4c-0.1-0.1-0.1-0.2-0.2-0.4
		c-0.1-0.1-0.1-0.3-0.1-0.4c0-0.2,0-0.3,0-0.5c0-0.4,0.1-0.6,0.3-0.8s0.5-0.3,0.9-0.3c0.5,0,0.8,0.2,1,0.6c0.2,0.4,0.3,0.9,0.3,1.6
		v0.6h1.6c0.1-0.3,0.1-0.6,0.2-0.8c0-0.2,0.1-0.5,0.1-0.8c0-0.3,0-0.7-0.1-1c-0.1-0.3-0.3-0.6-0.5-0.9c-0.2-0.3-0.5-0.5-0.9-0.7
		c-0.4-0.2-0.9-0.2-1.5-0.2c-0.5,0-0.9,0.1-1.3,0.2s-0.7,0.4-1,0.6c-0.3,0.3-0.5,0.6-0.6,1c-0.1,0.4-0.2,0.8-0.2,1.2
		c0,0.6,0.1,1.1,0.3,1.6c0.2,0.5,0.5,1,0.9,1.4l2.1,2.5c0.2,0.2,0.3,0.4,0.5,0.6c0.1,0.2,0.2,0.4,0.3,0.5s0.1,0.3,0.1,0.5
		c0,0.2,0,0.4,0,0.6c0,0.4-0.1,0.7-0.3,0.9S52.6,24,52.2,24c-0.2,0-0.5,0-0.6-0.1c-0.2-0.1-0.3-0.2-0.4-0.4C51.1,23.2,51,23,51,22.7
		c0-0.3-0.1-0.6-0.1-1v-0.6h-1.6c-0.1,0.3-0.1,0.5-0.2,0.8c0,0.2-0.1,0.5-0.1,0.8c0,0.4,0,0.7,0.1,1c0.1,0.3,0.3,0.6,0.5,0.9
		c0.2,0.3,0.6,0.5,1,0.6s0.9,0.2,1.5,0.2c0.5,0,0.9-0.1,1.3-0.2s0.7-0.3,1-0.6c0.3-0.3,0.5-0.6,0.6-1c0.1-0.4,0.2-0.8,0.2-1.3
		C55.4,21.9,55.3,21.3,55.1,20.8z"/>
</g>
</svg>
